<?xml version="1.0" encoding="UTF-8" standalone="no"?>
<!-- Created with Inkscape (http://www.inkscape.org/) -->

<svg
   width="49.844704mm"
   height="67.73333mm"
   viewBox="0 0 49.844702 67.733328"
   version="1.1"
   id="svg1"
   xml:space="preserve"
   inkscape:version="1.4 (86a8ad7, 2024-10-11)"
   sodipodi:docname="sm.svg"
   xmlns:inkscape="http://www.inkscape.org/namespaces/inkscape"
   xmlns:sodipodi="http://sodipodi.sourceforge.net/DTD/sodipodi-0.dtd"
   xmlns="http://www.w3.org/2000/svg"
   xmlns:svg="http://www.w3.org/2000/svg"><sodipodi:namedview
     id="namedview1"
     pagecolor="#ffffff"
     bordercolor="#000000"
     borderopacity="0.25"
     inkscape:showpageshadow="2"
     inkscape:pageopacity="0.0"
     inkscape:pagecheckerboard="0"
     inkscape:deskcolor="#d1d1d1"
     inkscape:document-units="mm"
     inkscape:zoom="1.3999999"
     inkscape:cx="5.3571434"
     inkscape:cy="163.92859"
     inkscape:window-width="1920"
     inkscape:window-height="974"
     inkscape:window-x="-11"
     inkscape:window-y="-11"
     inkscape:window-maximized="1"
     inkscape:current-layer="svg1"><inkscape:page
       x="8.8185118e-08"
       y="0"
       width="49.844704"
       height="67.73333"
       id="page1"
       margin="0"
       bleed="0" /></sodipodi:namedview><defs
     id="defs1"><mask
       id="SvgjsMask1226"><rect
         width="1440"
         height="560"
         fill="#ffffff"
         id="rect8"
         x="0"
         y="0" /></mask><linearGradient
       x1="0"
       y1="148.5"
       x2="210"
       y2="148.5"
       gradientUnits="userSpaceOnUse"
       id="SvgjsLinearGradient1227"><stop
         stop-color="#0e2a47"
         offset="0"
         id="stop8" /><stop
         stop-color="rgba(0, 69, 158, 1)"
         offset="0.37"
         id="stop9" /><stop
         stop-color="rgba(0, 69, 158, 1)"
         offset="0.91"
         id="stop10" /></linearGradient><clipPath
       clipPathUnits="userSpaceOnUse"
       id="clipPath6627"><path
         d="M 0,595.276 H 841.89 V 0 H 0 Z"
         id="path6625" /></clipPath></defs><g
     inkscape:label="Layer 1"
     inkscape:groupmode="layer"
     id="layer1"
     transform="translate(-95.280816,-298.87735)" /><g
     id="g6623"
     clip-path="url(#clipPath6627)"
     transform="matrix(0.65735636,0,0,-0.65735628,-45.193841,229.52088)"><g
       id="g6637"
       transform="translate(82.7173,337.1963)"><path
         d="m 0,0 c 0,0 0.825,1.17 4.512,1.078 1.244,0 2.487,-0.001 3.732,-0.002 3.016,-0.002 6.033,-0.004 9.049,0 3.75,0.004 7.5,-0.004 11.25,0.004 3.449,0.008 6.899,0.019 10.348,0.004 2.241,-0.01 4.512,0.107 6.748,-0.062 3.196,-0.241 6.479,-2.87 6.479,-6.274 v -29.76 z"
         style="fill:#fd0000;fill-opacity:1;fill-rule:nonzero;stroke:none"
         id="path6639" /></g><g
       id="g6641"
       transform="translate(78.5562,299.1084)"><path
         d="m 0,0 54.874,-37.311 c 0,0 1.247,-0.623 1.247,2.911 V -1.871 L 1.351,34.711 c 0,0 -1.143,-0.104 -1.351,-1.662 z"
         style="fill:#fd0000;fill-opacity:1;fill-rule:nonzero;stroke:none"
         id="path6643" /></g><g
       id="g6645"
       transform="translate(78.5566,293.8418)"><path
         d="m 0,0 c -0.013,-2.841 -0.027,-18.581 -0.033,-23.604 -0.006,-4.567 -0.629,-9.467 3.897,-12.278 1.136,-0.705 2.654,-1 3.982,-0.994 0.007,0 40.515,0.154 40.515,0.154 0,0 5.959,-0.277 2.633,1.387 z"
         style="fill:#fd0000;fill-opacity:1;fill-rule:nonzero;stroke:none"
         id="path6647" /></g><g
       id="g6649"
       transform="translate(76.6499,345.0615)"><path
         d="m 0,0 h 0.004 c -2.096,-0.004 -3.802,-1.715 -3.807,-3.811 l 0.088,-87.234 c 0.004,-2.09 1.711,-3.797 3.806,-3.801 h 59.935 c 2.094,0.004 3.803,1.713 3.807,3.805 L 63.746,-3.807 C 63.741,-1.713 62.03,-0.004 59.935,0 Z M 60.026,-98.943 H 0.087 c -4.356,0 -7.899,3.543 -7.899,7.898 l -0.087,87.238 c 0,4.358 3.543,7.903 7.899,7.903 h 59.939 c 4.356,0 7.901,-3.545 7.901,-7.903 l 0.087,-87.238 c 0,-4.355 -3.544,-7.898 -7.901,-7.898"
         style="fill:#000000;fill-opacity:1;fill-rule:nonzero;stroke:none"
         id="path6651" /></g></g></svg>
